<svg width="570" height="512" viewBox="0 0 570 512" fill="none" xmlns="http://www.w3.org/2000/svg">
<g id="email-illustration" clip-path="url(#clip0_1587_2)">
<path id="Vector" d="M564.999 195.675C564.795 195.675 564.596 195.612 564.429 195.496L287.87 2.89208C287.028 2.30868 286.028 1.9969 285.004 1.99865C283.98 2.0004 282.981 2.31558 282.141 2.90185L7.57454 195.494C7.35737 195.646 7.08859 195.706 6.82732 195.66C6.56604 195.614 6.33367 195.466 6.18135 195.249C6.02903 195.032 5.96921 194.763 6.01506 194.502C6.06091 194.241 6.20868 194.008 6.42586 193.856L280.993 1.26415C282.168 0.443505 283.567 0.00236562 285.001 9.48758e-06C286.434 -0.00234665 287.835 0.434189 289.013 1.25097L565.572 193.854C565.746 193.976 565.878 194.15 565.946 194.352C566.015 194.553 566.018 194.771 565.954 194.974C565.89 195.178 565.763 195.355 565.591 195.481C565.42 195.607 565.212 195.675 564.999 195.675Z" fill="#3F3D56"/>
<path id="Vector_2" d="M23.2637 202.502L285.276 8.31885L549.276 216.319L298.776 364.819L162.776 333.819L23.2637 202.502Z" fill="#E6E6E6"/>
<path id="Vector_3" d="M174.255 456.541H44.8149C44.0201 456.542 43.2329 456.386 42.4983 456.083C41.7637 455.78 41.0961 455.334 40.5338 454.773C39.9714 454.211 39.5253 453.544 39.2209 452.81C38.9165 452.075 38.7598 451.288 38.7598 450.494C38.7598 449.699 38.9165 448.912 39.2209 448.178C39.5253 447.443 39.9714 446.776 40.5338 446.215C41.0961 445.653 41.7637 445.208 42.4983 444.904C43.2329 444.601 44.0201 444.445 44.8149 444.446H174.255C175.05 444.445 175.837 444.601 176.572 444.904C177.306 445.208 177.974 445.653 178.536 446.215C179.099 446.776 179.545 447.443 179.849 448.178C180.154 448.912 180.31 449.699 180.31 450.494C180.31 451.288 180.154 452.075 179.849 452.81C179.545 453.544 179.099 454.211 178.536 454.773C177.974 455.334 177.306 455.78 176.572 456.083C175.837 456.386 175.05 456.542 174.255 456.541Z" fill="#6C63FF"/>
<path id="Vector_4" d="M91.2552 430.541H44.8149C44.0201 430.542 43.2329 430.386 42.4983 430.083C41.7637 429.78 41.0961 429.334 40.5338 428.773C39.9714 428.211 39.5253 427.544 39.2209 426.81C38.9165 426.075 38.7598 425.288 38.7598 424.494C38.7598 423.699 38.9165 422.912 39.2209 422.178C39.5253 421.443 39.9714 420.776 40.5338 420.215C41.0961 419.653 41.7637 419.208 42.4983 418.904C43.2329 418.601 44.0201 418.445 44.8149 418.446H91.2552C92.05 418.445 92.8372 418.601 93.5718 418.904C94.3064 419.208 94.974 419.653 95.5364 420.215C96.0988 420.776 96.5449 421.443 96.8493 422.178C97.1537 422.912 97.3104 423.699 97.3104 424.494C97.3104 425.288 97.1537 426.075 96.8493 426.81C96.5449 427.544 96.0988 428.211 95.5364 428.773C94.974 429.334 94.3064 429.78 93.5718 430.083C92.8372 430.386 92.05 430.542 91.2552 430.541Z" fill="#6C63FF"/>
<path id="Vector_5" d="M288.96 311.159C287.911 311.16 286.872 310.957 285.9 310.561L124 243.383V33.1748C124.002 31.1864 124.793 29.28 126.199 27.874C127.605 26.468 129.512 25.6771 131.5 25.6748H441.5C443.488 25.6771 445.395 26.468 446.801 27.874C448.207 29.28 448.998 31.1864 449 33.1748V243.525L292.112 310.524C291.114 310.944 290.043 311.16 288.96 311.159ZM126 242.047L286.663 308.711C288.162 309.319 289.84 309.309 291.331 308.684L447 242.205V33.1748C446.998 31.7166 446.418 30.3187 445.387 29.2876C444.356 28.2566 442.958 27.6765 441.5 27.6748H131.5C130.042 27.6765 128.644 28.2566 127.613 29.2876C126.582 30.3187 126.002 31.7166 126 33.1748L126 242.047Z" fill="#3F3D56"/>
<path id="Vector_6" d="M563 193.675H562.8L448 242.695L290.93 309.765C290.316 310.023 289.658 310.158 288.992 310.161C288.326 310.165 287.666 310.037 287.05 309.785L125 242.555L7.37988 193.755L7.2002 193.675H7C5.14412 193.677 3.36483 194.415 2.05252 195.727C0.740212 197.04 0.00205925 198.819 0 200.675V504.675C0.00206189 506.531 0.740213 508.31 2.05252 509.622C3.36483 510.935 5.14412 511.673 7 511.675H563C564.856 511.673 566.635 510.935 567.947 509.622C569.26 508.31 569.998 506.531 570 504.675V200.675C569.998 198.819 569.26 197.04 567.947 195.727C566.635 194.415 564.856 193.677 563 193.675ZM568 504.675C567.999 506.001 567.473 507.272 566.535 508.21C565.597 509.147 564.326 509.674 563 509.675H7C5.67408 509.674 4.40262 509.147 3.46506 508.21C2.52749 507.272 2.00053 506.001 2 504.675V200.675C2.00181 199.382 2.50336 198.14 3.39978 197.208C4.2962 196.276 5.5181 195.727 6.81006 195.675L125 244.715L286.28 311.635C288.026 312.345 289.982 312.334 291.72 311.605L448 244.865L563.2 195.675C564.49 195.73 565.708 196.281 566.602 197.213C567.496 198.144 567.997 199.384 568 200.675V504.675Z" fill="#3F3D56"/>
<g id="email">
<path id="Vector_7" d="M288.96 310.66C287.976 310.661 287.002 310.47 286.091 310.098L124.5 243.049V33.1748C124.502 31.319 125.24 29.5397 126.553 28.2274C127.865 26.9152 129.644 26.177 131.5 26.1748H441.5C443.356 26.177 445.135 26.9152 446.447 28.2274C447.76 29.5397 448.498 31.319 448.5 33.1748V243.195L448.196 243.325L291.916 310.065C290.98 310.458 289.975 310.66 288.96 310.66Z" fill="white"/>
<path id="Vector_8" d="M287.345 251.147C281.379 251.158 275.572 249.229 270.799 245.651L270.503 245.429L208.192 197.721C205.306 195.51 202.884 192.752 201.064 189.605C199.244 186.458 198.062 182.983 197.585 179.379C197.108 175.775 197.346 172.113 198.284 168.6C199.222 165.088 200.843 161.795 203.054 158.909C205.266 156.024 208.023 153.602 211.17 151.782C214.318 149.962 217.792 148.779 221.396 148.302C225 147.825 228.663 148.063 232.175 149.001C235.687 149.94 238.98 151.561 241.866 153.772L282.226 184.72L377.604 60.3328C379.816 57.4478 382.575 55.0267 385.723 53.2079C388.871 51.389 392.346 50.208 395.95 49.7322C399.554 49.2565 403.217 49.4953 406.728 50.435C410.24 51.3748 413.533 52.9971 416.418 55.2093L415.825 56.0144L416.433 55.221C422.252 59.6936 426.06 66.2919 427.021 73.5683C427.981 80.8447 426.016 88.2051 421.557 94.0345L309.369 240.343C306.775 243.715 303.438 246.443 299.618 248.317C295.799 250.19 291.599 251.159 287.345 251.147Z" fill="#6C63FF"/>
</g>
</g>
<defs>
<clipPath id="clip0_1587_2">
<rect width="570" height="511.675" fill="white"/>
</clipPath>
</defs>
</svg>
